<?xml version="1.0" encoding="UTF-8" standalone="no"?>
<!-- Created with Inkscape (http://www.inkscape.org/) -->

<svg
   xmlns:dc="http://purl.org/dc/elements/1.1/"
   xmlns:cc="http://creativecommons.org/ns#"
   xmlns:rdf="http://www.w3.org/1999/02/22-rdf-syntax-ns#"
   xmlns:svg="http://www.w3.org/2000/svg"
   xmlns="http://www.w3.org/2000/svg"
   xmlns:sodipodi="http://sodipodi.sourceforge.net/DTD/sodipodi-0.dtd"
   xmlns:inkscape="http://www.inkscape.org/namespaces/inkscape"
   width="40"
   height="40"
   viewBox="0 0 10.583333 10.583334"
   version="1.1"
   id="castle"
   inkscape:version="0.92.1 r15371"
   sodipodi:docname="castle.svg">
  <defs
     id="defs5246" />
  <sodipodi:namedview
     id="base"
     pagecolor="#ffffff"
     bordercolor="#666666"
     borderopacity="1.0"
     inkscape:pageopacity="0.0"
     inkscape:pageshadow="2"
     inkscape:zoom="11.122807"
     inkscape:cx="29.5"
     inkscape:cy="13.5"
     inkscape:document-units="mm"
     inkscape:current-layer="layer4"
     showgrid="false"
     units="px"
     inkscape:snap-others="true"
     inkscape:snap-nodes="true"
     inkscape:snap-global="false"
     inkscape:snap-page="false"
     inkscape:snap-bbox="true"
     inkscape:snap-bbox-midpoints="false"
     inkscape:window-width="1368"
     inkscape:window-height="859"
     inkscape:window-x="-8"
     inkscape:window-y="22"
     inkscape:window-maximized="1"
     inkscape:bbox-nodes="true"
     inkscape:object-nodes="false" />
  <metadata
     id="metadata5249">
    <rdf:RDF>
      <cc:Work
         rdf:about="">
        <dc:format>image/svg+xml</dc:format>
        <dc:type
           rdf:resource="http://purl.org/dc/dcmitype/StillImage" />
        <dc:title></dc:title>
      </cc:Work>
    </rdf:RDF>
  </metadata>
  <g
     inkscape:label="Layer 1"
     inkscape:groupmode="layer"
     id="layer1"
     transform="translate(0,-286.41665)"
     style="display:none"
     sodipodi:insensitive="true">
    <path
       style="fill:none;stroke:#000000;stroke-width:0.26458332px;stroke-linecap:butt;stroke-linejoin:miter;stroke-opacity:1"
       d="m 1.0004557,296.98345 c 0.1395954,-0.12532 0.00345,-0.3923 0.234412,-0.46887 0.1881378,-0.17142 0.1807892,-0.4318 0.1728028,-0.66352 0.011967,-0.27481 -0.043665,-0.54495 -0.090985,-0.81321 -0.044484,-0.51303 -0.024066,-1.02932 -0.037799,-1.54322 -0.039445,-0.27628 0.2167261,-0.62622 -0.03436,-0.83656 -0.26982015,-0.11813 -0.31586672,-0.4135 -0.28726143,-0.67021 0.0877408,-0.28835 0.39909723,-0.16585 0.52546403,0.01 0.1470081,0.0237 0.2221517,-0.31465 0.3993129,-0.1049 0.1195138,0.14524 0.2773477,0.0931 0.3564399,-0.0476 0.2222598,-0.11609 0.3981623,0.0979 0.5489076,0.18926 0.1714549,0.0102 0.1681779,-0.22033 0.1873601,-0.25695 0.2646266,-0.0653 0.3864087,0.26893 0.5957724,0.25873 0.1848653,-0.0461 0.1658668,-0.32794 0.398609,-0.22381 0.2533995,0.0931 0.2206367,0.4748 0.123666,0.67516 -0.1286453,0.22722 -0.5537729,0.20366 -0.4738621,0.554 0.055222,0.58749 -0.054231,1.17474 -0.013177,1.76285 0.004,0.45991 -0.020267,0.92416 0.0629,1.37907 0.2032608,0.18037 0.4642608,0.35572 0.4701538,0.65816 0.00986,0.0523 0.01732,0.10518 0.020309,0.15837"
       id="path6688"
       inkscape:connector-curvature="0" />
    <path
       style="fill:none;stroke:#000000;stroke-width:0.26458332px;stroke-linecap:butt;stroke-linejoin:miter;stroke-opacity:1"
       d="m 2.3151041,293.21314 c 0.1251051,0.0351 0.012607,0.10003 0.024805,0.14883 0.00149,0.006 0.00677,0.0106 0.00827,0.0165 0.00187,0.008 0,0.0317 0,0.0413 0,0.0248 0,0.0496 0,0.0744 0,0.0248 0,0.0496 0,0.0744 0,0.003 0,0.006 0,0.008 0,0.003 -0.00195,0.006 0,0.008 0.00195,0.002 0.00632,-0.002 0.00827,0 0.0039,0.004 -0.0039,0.0126 0,0.0165 0.00195,0.002 0.00632,-0.002 0.00827,0 0.00195,0.002 -0.00123,0.006 0,0.008 0.00174,0.003 0.00653,0.005 0.00827,0.008 0.00123,0.002 -0.00195,0.006 0,0.008 0.017107,0.0171 -6.694e-4,-0.0261 0.016536,0.008 0.00123,0.002 -0.00195,0.006 0,0.008 0.00195,0.002 0.0058,-0.001 0.00827,0 0.00349,0.002 0.00551,0.006 0.00827,0.008 0.00551,0 0.011307,-0.002 0.016536,0 0.0037,0.001 0.00478,0.007 0.00827,0.008 0.00247,0.001 0.00565,-8.7e-4 0.00827,0 0.00585,0.002 0.01069,0.006 0.016536,0.008 0.00523,0.002 0.011606,-0.002 0.016536,0 0.027422,0.0274 -0.0078,-0.004 0.016536,0.008 0.00349,0.002 0.00478,0.007 0.00827,0.008 0.00247,0.001 0.00632,-0.002 0.00827,0 0.00195,0.002 -0.00195,0.006 0,0.008 0.00195,0.002 0.00551,0 0.00827,0 0.00276,0 0.00632,0.002 0.00827,0 0.00195,-0.002 0,-0.006 0,-0.008 0,-0.006 0.00149,-0.0384 0,-0.0413 -0.00174,-0.003 -0.00704,-0.005 -0.00827,-0.008 -0.00174,-0.005 0,-0.011 0,-0.0165 0,-0.006 0,-0.011 0,-0.0165 0,-0.0193 0,-0.0386 0,-0.0579 0,-0.01 -0.00161,-0.0581 0,-0.0662 0.00121,-0.006 0.00677,-0.0106 0.00827,-0.0165 0.00163,-0.007 0,-0.041 0,-0.0496 0,-0.0193 0,-0.0386 0,-0.0579 0,-0.006 0,-0.011 0,-0.0165 0,-0.003 8.704e-4,-0.006 0,-0.008 -0.00195,-0.006 -0.00632,-0.0107 -0.00827,-0.0165 -0.00238,-0.007 0.00263,-0.0361 0,-0.0413 -0.00174,-0.003 -0.00653,-0.005 -0.00827,-0.008 -0.00247,-0.005 0.00247,-0.0116 0,-0.0165 -0.00174,-0.003 -0.00653,-0.005 -0.00827,-0.008 -0.00123,-0.002 0.00123,-0.006 0,-0.008 -0.00174,-0.003 -0.00653,-0.005 -0.00827,-0.008 -0.00123,-0.002 0.00195,-0.006 0,-0.008 -0.00195,-0.002 -0.00632,0.002 -0.00827,0 -0.00195,-0.002 0.00195,-0.006 0,-0.008 -0.00195,-0.002 -0.00551,0 -0.00827,0 -0.00276,0 -0.00632,-0.002 -0.00827,0 -0.00195,0.002 0.00195,0.006 0,0.008 -0.00195,0.002 -0.00551,0 -0.00827,0 -0.00276,0 -0.00551,0 -0.00827,0 -0.0072,0 -0.046558,-0.002 -0.049609,0 -0.00349,0.002 -0.00478,0.007 -0.00827,0.008 -0.00493,0.002 -0.011606,-0.002 -0.016536,0 -0.020434,0.0102 0.00285,0.008 -0.016536,0.008"
       id="path6698"
       inkscape:connector-curvature="0" />
    <path
       style="fill:none;stroke:#000000;stroke-width:0.26458332px;stroke-linecap:butt;stroke-linejoin:miter;stroke-opacity:1"
       d="m 1.3146484,292.75839 c 0.023061,-0.006 0.1277263,-0.0383 0.1736328,-0.0414 0.03575,-0.002 0.071658,0 0.107487,0 0.06339,0 0.1267795,0 0.1901693,0 0.024805,0 0.049609,0 0.074414,0 0.011024,0 0.022116,10e-4 0.033073,0 0.013967,-0.002 0.027561,-0.006 0.041341,-0.008 0.016536,0 0.033155,0.002 0.049609,0 0.011307,-10e-4 0.021779,-0.007 0.033073,-0.008 0.013696,-0.002 0.027629,0.001 0.041341,0 0.013984,-10e-4 0.027358,-0.007 0.041341,-0.008 0.030166,-0.003 0.060758,0.003 0.09095,0 0.013996,-0.001 0.027358,-0.007 0.041341,-0.008 0.013712,-0.001 0.027561,0 0.041341,0 0.028654,0 0.054029,0 0.082682,0 0.01378,0 0.027629,10e-4 0.041341,0 0.013983,-0.001 0.027358,-0.007 0.041341,-0.008 0.030166,-0.003 0.060738,0.003 0.09095,0 0.016707,-10e-4 0.032903,-0.007 0.049609,-0.008 0.016479,-0.001 0.033073,0 0.049609,0 0.013399,0 0.093711,0 0.099219,0 0.01378,0 0.027561,0 0.041341,0 0.01378,0 0.027629,-0.001 0.041341,0 0.013983,10e-4 0.027346,0.007 0.041341,0.008 0.016468,0.002 0.033141,-10e-4 0.049609,0 0.013996,0.001 0.027374,0.007 0.041341,0.008 0.010956,10e-4 0.022117,-0.001 0.033073,0 0.013967,0.002 0.027358,0.007 0.041341,0.008 0.013711,10e-4 0.027561,0 0.041341,0 0.01378,0 0.027561,0 0.041341,0 0.011025,0 0.022048,0 0.033073,0 0.01378,0 0.027645,0.002 0.041341,0 0.098478,-0.0109 -0.031367,-0.008 0.066146,-0.008 0.01378,0 0.027645,0.002 0.041341,0 0.011295,-0.001 0.021823,-0.007 0.033073,-0.008 0.00819,-10e-4 0.016536,0 0.024805,0 0.011025,0 0.022159,-0.002 0.033073,0 0.00863,0.001 0.016208,0.007 0.024805,0.008 0.016312,0.003 0.033394,-0.003 0.049609,0 0.00604,10e-4 0.010493,0.007 0.016536,0.008 0.00811,0.002 0.016536,0 0.024805,0 0.01378,0 0.027561,0 0.041341,0 0.00551,0 0.011025,0 0.016536,0 0.00276,0 0.00565,-8.7e-4 0.00827,0 0.028502,0.009 0.00613,0.008 0.024805,0.008 0.00372,0 0.022288,-10e-4 0.024805,0 0.00349,0.002 0.00478,0.007 0.00827,0.008 0.00246,0.001 0.0058,-10e-4 0.00827,0 0.00349,0.002 0.00478,0.007 0.00827,0.008 0.00246,10e-4 0.00551,0 0.00827,0 0.00276,0 0.00551,0 0.00827,0 0.00276,0 0.00632,0.002 0.00827,0 0.00196,-0.002 -0.00196,-0.006 0,-0.008 0.00196,-0.002 0.00632,0.002 0.00827,0 0.00196,-0.002 0,-0.006 0,-0.008 0,-0.006 0,-0.011 0,-0.0165"
       id="path6700"
       inkscape:connector-curvature="0" />
    <path
       style="fill:none;stroke:#000000;stroke-width:0.26458332px;stroke-linecap:butt;stroke-linejoin:miter;stroke-opacity:1"
       d="m 0.89296874,292.35324 c 0.0330729,-0.0248 0.0626819,-0.0551 0.0992187,-0.0744 0.012179,-0.006 0.0275608,0 0.0413411,0 0.027561,0 0.055122,0 0.082682,0 0.00827,0 0.01662,-10e-4 0.024805,0 0.011249,0.002 0.021797,0.007 0.033073,0.008 0.010939,0.001 0.022134,-10e-4 0.033073,0 0.011276,0.001 0.021797,0.007 0.033073,0.008 0.010939,10e-4 0.022134,-0.001 0.033073,0 0.011276,10e-4 0.021779,0.007 0.033073,0.008 0.013696,0.002 0.027645,-0.002 0.041341,0 0.011294,10e-4 0.021797,0.007 0.033073,0.008 0.010939,0.001 0.022116,-10e-4 0.033073,0 0.013967,0.002 0.027358,0.007 0.041341,0.008 0.038203,0.004 0.077552,-0.004 0.1157552,0 0.013984,10e-4 0.027346,0.007 0.041341,0.008 0.027448,0.002 0.05529,-0.003 0.082682,0 0.013967,0.002 0.027346,0.007 0.041341,0.008 0.016468,0.001 0.033073,0 0.049609,0 0.01378,0 0.027561,0 0.041341,0 0.01378,0 0.027629,-10e-4 0.041341,0 0.013983,0.001 0.027346,0.007 0.041341,0.008 0.016468,0.002 0.033073,0 0.049609,0 0.01378,0 0.027561,0 0.041341,0 0.01378,0 0.027617,-0.001 0.041341,0 0.016696,0.002 0.032894,0.007 0.049609,0.008 0.071341,0.005 0.044865,-0.003 0.1157552,-0.008 0.016488,-0.001 0.033073,0 0.049609,0 0.019293,0 0.038642,10e-4 0.057878,0 0.016715,-0.001 0.032903,-0.007 0.049609,-0.008 0.016479,-10e-4 0.033073,0 0.049609,0 0.033073,0 0.066146,0 0.099219,0 0.096463,0 0.1929255,0 0.2893881,0 0.030317,0 0.060634,0 0.09095,0 0.016536,0 0.033141,0.001 0.049609,0 0.013996,-10e-4 0.027561,-0.006 0.041341,-0.008 0.016536,-0.003 0.032903,-0.007 0.049609,-0.008 0.016478,-0.001 0.033073,0 0.049609,0 0.041341,0 0.082682,0 0.1240235,0 0.01378,0 0.027617,10e-4 0.041341,0 0.016695,-0.002 0.032928,-0.007 0.049609,-0.008 0.01097,-10e-4 0.022048,0 0.033073,0 0.038585,0 0.07717,0 0.1157552,0 0.011025,0 0.022048,0 0.033073,0 0.01378,0 0.027667,-0.002 0.041341,0 0.00865,0.001 0.016177,0.007 0.024805,0.008 0.010914,0.002 0.022048,0 0.033073,0 0.011025,0 0.022048,0 0.033073,0 0.030317,0 0.060634,0 0.090951,0 0.093707,0 0.1874131,0 0.2811198,0 0.033073,0 0.066146,0 0.099219,0 0.00276,0 0.00551,0 0.00827,0 0.00276,0 0.00632,-0.002 0.00827,0 0.00196,0.002 0,0.006 0,0.008"
       id="path6702"
       inkscape:connector-curvature="0" />
  </g>
  <g
     inkscape:groupmode="layer"
     id="layer4"
     inkscape:label="Layer 2"
     transform="translate(0,5.2916667)">
    <path
       style="fill:#ffffff;stroke:#000000;stroke-width:0.26458332px;stroke-linecap:butt;stroke-linejoin:miter;stroke-opacity:1"
       d="m 4.0872833,1.8764131 v -3.858704 H 6.49605 v 3.88209"
       id="path6810"
       inkscape:connector-curvature="0"
       sodipodi:nodetypes="cccc" />
    <path
       style="fill:#ffffff;stroke:#000000;stroke-width:0.26458332px;stroke-linecap:butt;stroke-linejoin:miter;stroke-opacity:1"
       d="M 7.5133446,1.9474565 H 3.0699887 V 5.1727293 H 7.540625 Z"
       id="path6755"
       inkscape:connector-curvature="0" />
    <path
       style="fill:#ffffff;stroke:#000000;stroke-width:0.26458332;stroke-linecap:butt;stroke-linejoin:miter;stroke-miterlimit:4;stroke-dasharray:none;stroke-opacity:1"
       d="m 0.21317907,5.1593161 0.003425,-0.4231992 0.3507913,-0.3243245 V 1.3758573 L 0.21075737,1.0192195 V 0.18901358 h 0.7680013 V 0.6391957 H 1.50602 V 0.18901358 H 2.1812783 V 0.64061429 H 2.6934217 V 0.18901358 l 0.7504617,1e-8 V 1.0484522 L 3.0610223,1.3817039 v 3.0343444 l 0.3648181,0.3233089 v 0.4185402 z"
       id="path6705"
       inkscape:connector-curvature="0"
       sodipodi:nodetypes="ccccccccccccccccccccc" />
    <path
       style="fill:none;stroke:#000000;stroke-width:0.13229167;stroke-linecap:butt;stroke-linejoin:miter;stroke-miterlimit:4;stroke-dasharray:none;stroke-opacity:1"
       d="M 1.6103046,2.4151783 H 2.0429472 L 2.0078681,1.8305262 H 1.6336907 Z"
       id="path6707"
       inkscape:connector-curvature="0"
       sodipodi:nodetypes="ccccc" />
    <path
       style="fill:none;stroke:#000000;stroke-width:0.13229167;stroke-linecap:butt;stroke-linejoin:miter;stroke-miterlimit:4;stroke-dasharray:none;stroke-opacity:1"
       d="M 0.20491087,0.99447378 H 3.4497299"
       id="path6709"
       inkscape:connector-curvature="0" />
    <path
       style="fill:none;stroke:#000000;stroke-width:0.13229167;stroke-linecap:butt;stroke-linejoin:miter;stroke-miterlimit:4;stroke-dasharray:none;stroke-opacity:1"
       d="M 0.57031827,1.3511115 H 3.0843225"
       id="path6711"
       inkscape:connector-curvature="0" />
    <path
       style="fill:none;stroke:#000000;stroke-width:0.13229169;stroke-linecap:butt;stroke-linejoin:miter;stroke-miterlimit:4;stroke-dasharray:none;stroke-opacity:1"
       d="M 0.57031827,4.3870466 H 3.0843225"
       id="path6711-6"
       inkscape:connector-curvature="0" />
    <path
       style="fill:#ffffff;stroke:#000000;stroke-width:0.26458332;stroke-linecap:butt;stroke-linejoin:miter;stroke-miterlimit:4;stroke-dasharray:none;stroke-opacity:1"
       d="M 7.1790261,5.1593161 7.1824511,4.7361169 7.5332424,4.4117925 V 1.3758574 L 7.1766044,1.0192196 V 0.18901363 h 0.7680014 v 0.4501821 h 0.5272613 v -0.4501821 h 0.6752583 v 0.4516007 H 9.6592688 V 0.18901363 H 10.409731 V 1.0484522 L 10.026869,1.381704 v 3.0343443 l 0.364819,0.323309 v 0.4185401 z"
       id="path6705-2"
       inkscape:connector-curvature="0"
       sodipodi:nodetypes="ccccccccccccccccccccc" />
    <path
       style="fill:none;stroke:#000000;stroke-width:0.13229169;stroke-linecap:butt;stroke-linejoin:miter;stroke-miterlimit:4;stroke-dasharray:none;stroke-opacity:1"
       d="M 8.5761517,2.3679969 H 9.0087943 L 8.9737152,1.7833448 H 8.5995378 Z"
       id="path6707-3"
       inkscape:connector-curvature="0"
       sodipodi:nodetypes="ccccc" />
    <path
       style="fill:none;stroke:#000000;stroke-width:0.13229169;stroke-linecap:butt;stroke-linejoin:miter;stroke-miterlimit:4;stroke-dasharray:none;stroke-opacity:1"
       d="M 7.1707579,0.94729236 H 10.415577"
       id="path6709-7"
       inkscape:connector-curvature="0" />
    <path
       style="fill:none;stroke:#000000;stroke-width:0.13229169;stroke-linecap:butt;stroke-linejoin:miter;stroke-miterlimit:4;stroke-dasharray:none;stroke-opacity:1"
       d="M 7.5361653,1.3039301 H 10.05017"
       id="path6711-4"
       inkscape:connector-curvature="0" />
    <path
       style="fill:none;stroke:#000000;stroke-width:0.1322917;stroke-linecap:butt;stroke-linejoin:miter;stroke-miterlimit:4;stroke-dasharray:none;stroke-opacity:1"
       d="M 7.5361653,4.3398652 H 10.05017"
       id="path6711-6-4"
       inkscape:connector-curvature="0" />
    <path
       style="fill:none;stroke:#000000;stroke-width:0.26458332px;stroke-linecap:butt;stroke-linejoin:miter;stroke-opacity:1"
       d="M 3.4258403,5.1578971 H 7.1795277"
       id="path6757"
       inkscape:connector-curvature="0" />
    <path
       style="fill:none;stroke:#000000;stroke-width:0.26458332px;stroke-linecap:butt;stroke-linejoin:miter;stroke-opacity:1"
       d="M 4.7114846,5.1359952 V 3.8263746 c 0,0 0.00643,-0.5612662 0.5660849,-0.5612662 0.6685588,0 0.5915264,0.526187 0.5915264,0.526187 v 1.3446998 z"
       id="path6759"
       inkscape:connector-curvature="0"
       sodipodi:nodetypes="ccsccc" />
    <path
       style="fill:none;stroke:#000000;stroke-width:0.13229167;stroke-linecap:butt;stroke-linejoin:miter;stroke-miterlimit:4;stroke-dasharray:none;stroke-opacity:1"
       d="M 5.0917685,5.1664694 V 3.2885119"
       id="path6763"
       inkscape:connector-curvature="0" />
    <path
       style="fill:none;stroke:#000000;stroke-width:0.13229169;stroke-linecap:butt;stroke-linejoin:miter;stroke-miterlimit:4;stroke-dasharray:none;stroke-opacity:1"
       d="M 5.4915648,5.2082019 V 3.3302444"
       id="path6763-6"
       inkscape:connector-curvature="0" />
    <path
       style="fill:none;stroke:#000000;stroke-width:0.13229167;stroke-linecap:butt;stroke-linejoin:miter;stroke-miterlimit:4;stroke-dasharray:none;stroke-opacity:1"
       d="M 3.0699887,2.4329982 H 7.5133446"
       id="path6755-8"
       inkscape:connector-curvature="0" />
    <path
       style="fill:none;stroke:#000000;stroke-width:0.13229169;stroke-linecap:butt;stroke-linejoin:miter;stroke-miterlimit:4;stroke-dasharray:none;stroke-opacity:1"
       d="M 5.0746509,-0.42714025 H 5.5072935 L 5.4722144,-1.0117925 H 5.098037 Z"
       id="path6707-2"
       inkscape:connector-curvature="0"
       sodipodi:nodetypes="ccccc" />
    <path
       style="fill:#ffffff;stroke:#000000;stroke-width:0.26458333;stroke-linecap:butt;stroke-linejoin:round;stroke-miterlimit:4;stroke-dasharray:none;stroke-opacity:1"
       d="m 5.3658669,-3.5582215 1.4089422,0.3270759 -0.8051097,0.2515968 0.77995,0.4025549 -1.3837825,0.1006383"
       id="path6827"
       inkscape:connector-curvature="0" />
    <path
       style="fill:none;stroke:#000000;stroke-width:0.26458333;stroke-linecap:butt;stroke-linejoin:miter;stroke-miterlimit:4;stroke-dasharray:none;stroke-opacity:1"
       d="M 5.316706,-1.9564144 V -3.6924817"
       id="path6831" />
    <path
       style="fill:none;stroke:#000000;stroke-width:0.13229167;stroke-linecap:butt;stroke-linejoin:miter;stroke-miterlimit:4;stroke-dasharray:none;stroke-opacity:1"
       d="m 4.1152307,-1.606697 h 2.331171"
       id="path6835"
       inkscape:connector-curvature="0" />
  </g>
</svg>
