<?xml version="1.0" encoding="UTF-8" standalone="no"?>
<svg
   xmlns:dc="http://purl.org/dc/elements/1.1/"
   xmlns:cc="http://creativecommons.org/ns#"
   xmlns:rdf="http://www.w3.org/1999/02/22-rdf-syntax-ns#"
   xmlns:svg="http://www.w3.org/2000/svg"
   xmlns="http://www.w3.org/2000/svg"
   xmlns:sodipodi="http://sodipodi.sourceforge.net/DTD/sodipodi-0.dtd"
   xmlns:inkscape="http://www.inkscape.org/namespaces/inkscape"
   version="1.1"
   width="32"
   height="32"
   id="svg3827"
   sodipodi:docname="logo.svg"
   inkscape:version="0.92.3 (unknown)"
   inkscape:export-filename="/home/magogato/Downloads/favicon.png"
   inkscape:export-xdpi="89.400002"
   inkscape:export-ydpi="89.400002">
  <metadata
     id="metadata3833">
    <rdf:RDF>
      <cc:Work
         rdf:about="">
        <dc:format>image/svg+xml</dc:format>
        <dc:type
           rdf:resource="http://purl.org/dc/dcmitype/StillImage" />
        <dc:title></dc:title>
      </cc:Work>
    </rdf:RDF>
  </metadata>
  <defs
     id="defs3831" />
  <sodipodi:namedview
     pagecolor="#ffffff"
     bordercolor="#666666"
     borderopacity="1"
     objecttolerance="10"
     gridtolerance="10"
     guidetolerance="10"
     inkscape:pageopacity="0"
     inkscape:pageshadow="2"
     inkscape:window-width="2736"
     inkscape:window-height="1732"
     id="namedview3829"
     showgrid="false"
     inkscape:zoom="38.080914"
     inkscape:cx="15.185901"
     inkscape:cy="16.181298"
     inkscape:window-x="0"
     inkscape:window-y="0"
     inkscape:window-maximized="1"
     inkscape:current-layer="svg3827"
     inkscape:pagecheckerboard="true"
     inkscape:snap-page="true" />
  <g
     id="g4754"
     transform="matrix(1.0041966,0,0,1.0041966,-0.0398471,-0.08444064)">
    <path
       sodipodi:nodetypes="ccccccccccccccccc"
       inkscape:connector-curvature="0"
       id="path3793-7"
       d="m 6.7777622,0.08162326 c -0.120088,0.004 -0.236357,0.04318 -0.334387,0.112661 -0.01487,0.01054 -0.02927,0.02174 -0.04315,0.03356 -0.0024,0.0016 -0.0048,0.0032 -0.0072,0.0048 -0.01286,0.01107 -0.02526,0.02266 -0.03716,0.03476 -0.002,0.002 -0.004,0.004 -0.006,0.006 L 0.27340023,6.3498952 c -0.179631,0.137066 -0.269415,0.361751 -0.233712,0.584864 V 31.383353 c 3.4e-5,0.338891 0.274751,0.613608 0.613642,0.613642 H 31.335422 c 0.33889,-3.4e-5 0.613608,-0.274751 0.613641,-0.613642 V 0.70125731 C 31.94903,0.36236531 31.674312,0.08764826 31.335419,0.08761526 H 6.8796352 c -0.03373,-0.0048 -0.06781,-0.0068 -0.101874,-0.006 z"
       style="color:#000000;font-style:normal;font-variant:normal;font-weight:normal;font-stretch:normal;font-size:medium;line-height:normal;font-family:none;font-variant-ligatures:normal;font-variant-position:normal;font-variant-caps:normal;font-variant-numeric:normal;font-variant-alternates:normal;font-feature-settings:normal;text-indent:0;text-align:start;text-decoration:none;text-decoration-line:none;text-decoration-style:solid;text-decoration-color:#000000;letter-spacing:normal;word-spacing:normal;text-transform:none;writing-mode:lr-tb;direction:ltr;text-orientation:mixed;dominant-baseline:auto;baseline-shift:baseline;text-anchor:start;white-space:normal;shape-padding:0;clip-rule:nonzero;display:inline;overflow:visible;visibility:visible;opacity:1;isolation:auto;mix-blend-mode:normal;color-interpolation:sRGB;color-interpolation-filters:linearRGB;solid-color:#000000;solid-opacity:1;vector-effect:none;fill:#ffffff;fill-opacity:1;fill-rule:nonzero;stroke:none;stroke-width:1.22728372;stroke-linecap:round;stroke-linejoin:round;stroke-miterlimit:10;stroke-dasharray:none;stroke-dashoffset:0;stroke-opacity:1;color-rendering:auto;image-rendering:auto;shape-rendering:auto;text-rendering:auto;enable-background:accumulate" />
    <g
       transform="translate(-0.05094335,-0.00299529)"
       id="g4742">
      <path
         style="color:#000000;font-style:normal;font-variant:normal;font-weight:normal;font-stretch:normal;font-size:medium;line-height:normal;font-family:none;font-variant-ligatures:normal;font-variant-position:normal;font-variant-caps:normal;font-variant-numeric:normal;font-variant-alternates:normal;font-feature-settings:normal;text-indent:0;text-align:start;text-decoration:none;text-decoration-line:none;text-decoration-style:solid;text-decoration-color:#000000;letter-spacing:normal;word-spacing:normal;text-transform:none;writing-mode:lr-tb;direction:ltr;text-orientation:mixed;dominant-baseline:auto;baseline-shift:baseline;text-anchor:start;white-space:normal;shape-padding:0;clip-rule:nonzero;display:inline;overflow:visible;visibility:visible;opacity:1;isolation:auto;mix-blend-mode:normal;color-interpolation:sRGB;color-interpolation-filters:linearRGB;solid-color:#000000;solid-opacity:1;vector-effect:none;fill:#5d4640;fill-opacity:1;fill-rule:nonzero;stroke:none;stroke-width:1.22728372;stroke-linecap:round;stroke-linejoin:round;stroke-miterlimit:10;stroke-dasharray:none;stroke-dashoffset:0;stroke-opacity:1;color-rendering:auto;image-rendering:auto;shape-rendering:auto;text-rendering:auto;enable-background:accumulate"
         d="m 6.8286991,0.08463113 a 0.61370321,0.61370321 0 0 0 -0.3343869,0.11266097 0.61370321,0.61370321 0 0 0 -0.043145,0.03356 0.61370321,0.61370321 0 0 0 -0.0072,0.004787 0.61370321,0.61370321 0 0 0 -0.037157,0.0347567 0.61370321,0.61370321 0 0 0 -0.00601,0.006014 L 0.32433515,6.3529003 A 0.61370321,0.61370321 0 0 0 0.09062393,6.9377642 V 31.386358 A 0.61370321,0.61370321 0 0 0 0.70426584,32 H 31.386358 A 0.61370321,0.61370321 0 0 0 32,31.386358 V 0.70426584 A 0.61370321,0.61370321 0 0 0 31.386358,0.09062395 H 6.9305728 A 0.61370321,0.61370321 0 0 0 6.8286987,0.08461026 Z M 7.454326,1.3179076 h 23.31839 V 30.772716 H 1.3179075 V 7.454326 h 5.5227766 a 0.61370321,0.61370321 0 0 0 0.2385054,-0.047944 0.61370321,0.61370321 0 0 0 0.19416,-0.1306387 0.61370321,0.61370321 0 0 0 0.00122,-0.00122 c 3.92e-4,-3.92e-4 7.976e-4,-7.976e-4 0.00122,-0.00122 a 0.61370321,0.61370321 0 0 0 0.125859,-0.1869832 c 0.00196,-0.00448 0.00411,-0.00862 0.00601,-0.013187 a 0.61370321,0.61370321 0 0 0 0.046664,-0.2324489 z"
         id="path3793"
         inkscape:connector-curvature="0" />
      <path
         style="color:#000000;font-style:normal;font-variant:normal;font-weight:normal;font-stretch:normal;font-size:medium;line-height:normal;font-family:none;font-variant-ligatures:normal;font-variant-position:normal;font-variant-caps:normal;font-variant-numeric:normal;font-variant-alternates:normal;font-feature-settings:normal;text-indent:0;text-align:start;text-decoration:none;text-decoration-line:none;text-decoration-style:solid;text-decoration-color:#000000;letter-spacing:normal;word-spacing:normal;text-transform:none;writing-mode:lr-tb;direction:ltr;text-orientation:mixed;dominant-baseline:auto;baseline-shift:baseline;text-anchor:start;white-space:normal;shape-padding:0;clip-rule:nonzero;display:inline;overflow:visible;visibility:visible;opacity:1;isolation:auto;mix-blend-mode:normal;color-interpolation:sRGB;color-interpolation-filters:linearRGB;solid-color:#000000;solid-opacity:1;vector-effect:none;fill:#ff572c;fill-opacity:1;fill-rule:nonzero;stroke:none;stroke-width:1.22728372;stroke-linecap:round;stroke-linejoin:round;stroke-miterlimit:10;stroke-dasharray:none;stroke-dashoffset:0;stroke-opacity:1;color-rendering:auto;image-rendering:auto;shape-rendering:auto;text-rendering:auto;enable-background:accumulate"
         d="m 28.922203,2.5368015 a 0.61370321,0.61370321 0 0 0 -0.08749,0.00839 H 27.090867 A 0.61370321,0.61370321 0 0 0 26.657004,3.592697 l 0.486598,0.4865991 -1.713883,1.7138827 a 0.61370321,0.61370321 0 1 0 0.867729,0.8677275 l 1.713881,-1.7138826 0.4866,0.4865989 a 0.61370321,0.61370321 0 0 0 1.047502,-0.433861 V 3.1588332 a 0.61370321,0.61370321 0 0 0 0,-0.00959 0.61370321,0.61370321 0 0 0 -0.0023,-0.051534 0.61370321,0.61370321 0 0 0 -0.0012,-0.00959 0.61370321,0.61370321 0 0 0 0,-0.0024 0.61370321,0.61370321 0 0 0 -0.619634,-0.5489217 z"
         id="path3797"
         inkscape:connector-curvature="0" />
      <path
         style="color:#000000;font-style:normal;font-variant:normal;font-weight:normal;font-stretch:normal;font-size:medium;line-height:normal;font-family:none;font-variant-ligatures:normal;font-variant-position:normal;font-variant-caps:normal;font-variant-numeric:normal;font-variant-alternates:normal;font-feature-settings:normal;text-indent:0;text-align:start;text-decoration:none;text-decoration-line:none;text-decoration-style:solid;text-decoration-color:#000000;letter-spacing:normal;word-spacing:normal;text-transform:none;writing-mode:lr-tb;direction:ltr;text-orientation:mixed;dominant-baseline:auto;baseline-shift:baseline;text-anchor:start;white-space:normal;shape-padding:0;clip-rule:nonzero;display:inline;overflow:visible;visibility:visible;opacity:1;isolation:auto;mix-blend-mode:normal;color-interpolation:sRGB;color-interpolation-filters:linearRGB;solid-color:#000000;solid-opacity:1;vector-effect:none;fill:#5d4640;fill-opacity:1;fill-rule:nonzero;stroke:none;stroke-width:3.06820917;stroke-linecap:round;stroke-linejoin:round;stroke-miterlimit:10;stroke-dasharray:none;stroke-dashoffset:0;stroke-opacity:1;color-rendering:auto;image-rendering:auto;shape-rendering:auto;text-rendering:auto;enable-background:accumulate"
         d="m 16.153177,12.58279 a 1.534258,1.534258 0 0 0 -1.510132,1.555677 v 3.681852 a 1.534258,1.534258 0 1 0 3.068208,0 V 14.138467 A 1.534258,1.534258 0 0 0 16.153177,12.58279 Z"
         id="path3803"
         inkscape:connector-curvature="0" />
      <path
         style="color:#000000;font-style:normal;font-variant:normal;font-weight:normal;font-stretch:normal;font-size:medium;line-height:normal;font-family:none;font-variant-ligatures:normal;font-variant-position:normal;font-variant-caps:normal;font-variant-numeric:normal;font-variant-alternates:normal;font-feature-settings:normal;text-indent:0;text-align:start;text-decoration:none;text-decoration-line:none;text-decoration-style:solid;text-decoration-color:#000000;letter-spacing:normal;word-spacing:normal;text-transform:none;writing-mode:lr-tb;direction:ltr;text-orientation:mixed;dominant-baseline:auto;baseline-shift:baseline;text-anchor:start;white-space:normal;shape-padding:0;clip-rule:nonzero;display:inline;overflow:visible;visibility:visible;opacity:1;isolation:auto;mix-blend-mode:normal;color-interpolation:sRGB;color-interpolation-filters:linearRGB;solid-color:#000000;solid-opacity:1;vector-effect:none;fill:#f2aad4;fill-opacity:1;fill-rule:nonzero;stroke:none;stroke-width:1.22728372;stroke-linecap:round;stroke-linejoin:round;stroke-miterlimit:10;stroke-dasharray:none;stroke-dashoffset:0;stroke-opacity:1;color-rendering:auto;image-rendering:auto;shape-rendering:auto;text-rendering:auto;enable-background:accumulate"
         d="m 16.167561,13.516436 a 0.61370321,0.61370321 0 0 0 -0.604055,0.622031 v 3.681852 a 0.61370321,0.61370321 0 1 0 1.227285,0 v -3.681852 a 0.61370321,0.61370321 0 0 0 -0.62323,-0.622031 z"
         id="path3805"
         inkscape:connector-curvature="0" />
      <path
         style="color:#000000;font-style:normal;font-variant:normal;font-weight:normal;font-stretch:normal;font-size:medium;line-height:normal;font-family:none;font-variant-ligatures:normal;font-variant-position:normal;font-variant-caps:normal;font-variant-numeric:normal;font-variant-alternates:normal;font-feature-settings:normal;text-indent:0;text-align:start;text-decoration:none;text-decoration-line:none;text-decoration-style:solid;text-decoration-color:#000000;letter-spacing:normal;word-spacing:normal;text-transform:none;writing-mode:lr-tb;direction:ltr;text-orientation:mixed;dominant-baseline:auto;baseline-shift:baseline;text-anchor:start;white-space:normal;shape-padding:0;clip-rule:nonzero;display:inline;overflow:visible;visibility:visible;opacity:1;isolation:auto;mix-blend-mode:normal;color-interpolation:sRGB;color-interpolation-filters:linearRGB;solid-color:#000000;solid-opacity:1;vector-effect:none;fill:#5d4640;fill-opacity:1;fill-rule:nonzero;stroke:none;stroke-width:1.22728372;stroke-linecap:round;stroke-linejoin:round;stroke-miterlimit:10;stroke-dasharray:none;stroke-dashoffset:0;stroke-opacity:1;color-rendering:auto;image-rendering:auto;shape-rendering:auto;text-rendering:auto;enable-background:accumulate"
         d="m 16.045312,10.522535 c -0.866611,0 -1.712713,0.130685 -2.514493,0.376335 -0.801781,0.245651 -1.559532,0.605824 -2.25082,1.066682 -0.691287,0.460859 -1.3153825,1.022715 -1.850513,1.668339 -0.511576,0.617206 -0.9387284,1.313438 -1.266835,2.07224 a 0.61370321,0.61370321 0 0 0 -0.058726,0.113859 0.61370321,0.61370321 0 0 0 -0.019176,0.05873 0.61370321,0.61370321 0 0 0 -0.011984,0.05993 0.61370321,0.61370321 0 0 0 -0.00839,0.101878 0.61370321,0.61370321 0 0 0 0,0.0072 0.61370321,0.61370321 0 0 0 0,0.0049 0.61370321,0.61370321 0 0 0 0.00122,0.01678 0.61370321,0.61370321 0 0 0 0.00959,0.100676 0.61370321,0.61370321 0 0 0 0.01558,0.05993 0.61370321,0.61370321 0 0 0 0.020374,0.05753 0.61370321,0.61370321 0 0 0 0.051533,0.09708 c 0.6712049,1.552746 1.7651517,2.839114 3.117349,3.74058 1.382536,0.921726 3.032061,1.443023 4.76528,1.443023 1.733221,0 3.38274,-0.521301 4.765313,-1.443017 1.373694,-0.915797 2.482838,-2.227619 3.150907,-3.813688 2.07e-4,-4.91e-4 9.82e-4,-7.37e-4 0.0012,-0.0012 a 0.6141028,0.6141028 0 0 0 0.0012,-0.0023 c 0.0037,-0.0089 0.0083,-0.0174 0.01199,-0.02637 a 0.6141028,0.6141028 0 0 0 0.0049,-0.01318 0.6141028,0.6141028 0 0 0 0.01199,-0.03595 0.6141028,0.6141028 0 0 0 0.0036,-0.0084 0.6141028,0.6141028 0 0 0 0.0023,-0.0096 0.6141028,0.6141028 0 0 0 0.0096,-0.03476 0.6141028,0.6141028 0 0 0 0.0061,-0.03116 0.6141028,0.6141028 0 0 0 0.0049,-0.03475 0.6141028,0.6141028 0 0 0 0.0012,-0.01079 0.6141028,0.6141028 0 0 0 0,-0.0072 0.6141028,0.6141028 0 0 0 0.0023,-0.05393 0.6141028,0.6141028 0 0 0 -0.0012,-0.04315 0.6141028,0.6141028 0 0 0 -0.006,-0.04674 0.6141028,0.6141028 0 0 0 -0.01078,-0.05513 0.6141028,0.6141028 0 0 0 -0.0012,-0.0049 0.6141028,0.6141028 0 0 0 -0.0023,-0.006 0.6141028,0.6141028 0 0 0 -0.01199,-0.04194 0.6141028,0.6141028 0 0 0 -0.0036,-0.01079 0.6141028,0.6141028 0 0 0 -0.0096,-0.02396 0.6141028,0.6141028 0 0 0 -0.0012,-0.0012 c -6.14e-4,-0.0015 -5.72e-4,-0.0033 -0.0012,-0.0049 a 0.6141028,0.6141028 0 0 0 -0.0049,-0.0096 C 22.63174,12.602824 19.506004,10.522535 16.045312,10.522535 Z m 0,1.227284 c 2.885483,0 5.487554,1.683604 6.685339,4.290699 -0.888259,1.938848 -2.547123,3.371337 -4.529203,3.977885 -0.687295,0.210324 -1.412516,0.322402 -2.156136,0.322402 -2.23086,0 -4.295927,-1.00491 -5.671394,-2.665507 -0.404724,-0.488625 -0.7444371,-1.036687 -1.0163439,-1.629986 0.5803285,-1.265583 1.4881309,-2.316451 2.6031839,-3.05982 1.184502,-0.789668 2.597314,-1.235673 4.084554,-1.235673 z"
         id="path3807"
         inkscape:connector-curvature="0" />
    </g>
  </g>
</svg>
