<?xml version="1.0" encoding="UTF-8" standalone="no"?>
<!-- Created with Inkscape (http://www.inkscape.org/) -->

<svg
   xmlns:dc="http://purl.org/dc/elements/1.1/"
   xmlns:cc="http://creativecommons.org/ns#"
   xmlns:rdf="http://www.w3.org/1999/02/22-rdf-syntax-ns#"
   xmlns:svg="http://www.w3.org/2000/svg"
   xmlns="http://www.w3.org/2000/svg"
   xmlns:sodipodi="http://sodipodi.sourceforge.net/DTD/sodipodi-0.dtd"
   xmlns:inkscape="http://www.inkscape.org/namespaces/inkscape"
   width="50"
   height="50"
   viewBox="0 0 13.229166 13.229167"
   version="1.1"
   id="mountain"
   inkscape:version="0.92.1 r15371"
   sodipodi:docname="mountain.svg">
  <defs
     id="defs2" />
  <sodipodi:namedview
     id="base"
     pagecolor="#ffffff"
     bordercolor="#666666"
     borderopacity="1.0"
     inkscape:pageopacity="0.0"
     inkscape:pageshadow="2"
     inkscape:zoom="1"
     inkscape:cx="12.224124"
     inkscape:cy="20.847418"
     inkscape:document-units="mm"
     inkscape:current-layer="layer1"
     showgrid="false"
     units="px"
     inkscape:window-width="1368"
     inkscape:window-height="859"
     inkscape:window-x="-8"
     inkscape:window-y="22"
     inkscape:window-maximized="1" />
  <metadata
     id="metadata5">
    <rdf:RDF>
      <cc:Work
         rdf:about="">
        <dc:format>image/svg+xml</dc:format>
        <dc:type
           rdf:resource="http://purl.org/dc/dcmitype/StillImage" />
        <dc:title></dc:title>
      </cc:Work>
    </rdf:RDF>
  </metadata>
  <g
     inkscape:label="Layer 1"
     inkscape:groupmode="layer"
     id="layer1"
     transform="translate(0,-283.77082)">
    <path
       vector-effect="non-scaling-stroke"
       class="mountain-path"
       style="fill:#000000;stroke:#000000;stroke-width:0.26458332px;stroke-linecap:butt;stroke-linejoin:miter;stroke-opacity:1"
       d="m 13.030643,293.59351 c -0.116722,-0.0168 -0.369093,-0.23078 -0.290579,-0.24495 -0.06033,-0.15522 -0.348103,-0.12351 -0.470071,-0.25125 -0.222474,-0.0557 -0.208474,-0.12812 -0.33072,-0.2646 -0.111672,-0.22616 -0.320709,-0.35685 -0.46299,-0.5292 -0.228284,-0.11942 -0.369316,-0.35328 -0.56222,-0.4963 -0.131344,-0.17011 -0.228315,-0.17077 -0.34726,-0.4135 -0.137882,-0.27666 -0.341677,-0.3023 -0.54569,-0.4134 -0.1304947,-0.10738 -0.4241029,-0.11352 -0.529168,-0.2648 -0.1906537,-0.16659 -0.3959595,-0.24259 -0.6272826,-0.43161 -0.2857915,-0.15253 -0.4916853,-0.34328 -0.761783,-0.56068 -0.2793336,-0.14858 -0.2639206,-0.17786 -0.463022,-0.3969 -0.137392,-0.16721 -0.360879,-0.30051 -0.3760541,-0.43764 -0.11957,-0.15797 -0.3125725,-0.1172 -0.524612,-0.17225 m -0.3230345,0.14683 c -0.125195,0.16187 -0.2041021,0.2039 -0.2976574,0.36395 -0.086723,0.18846 -0.1825942,0.20781 -0.2645836,0.39685 -0.208451,0.14979 -0.354923,0.42798 -0.5622406,0.59569 -0.2509906,0.21647 -0.4277714,0.57458 -0.7276052,0.72773 -0.257542,0.20977 -0.5467709,0.46877 -0.7937513,0.66165 -0.3057258,0.24122 -0.6348874,0.40008 -0.9260433,0.66139 -0.2065623,0.12652 -0.3251269,0.23219 -0.562241,0.33075 -0.2207718,0.14855 -0.4816475,0.32088 -0.727606,0.46305 -0.2286757,0.0839 -0.4606001,0.22156 -0.69205035,0.34907 l -0.46550295,0.2793 c 0.56127367,-0.009 1.1297587,0.0288 1.6822111,-0.0331 h 1.9227373 c 0.2064547,0.0703 0.4646296,0.0158 0.6930595,0.0331 0.9044832,-1e-5 1.8089707,10e-6 2.7134511,0 0.033073,-0.0738 0.314013,-0.0138 0.4630211,-0.0331 0.2406675,-0.0602 -0.2438019,-0.0559 -0.33073,-0.1323 -0.041853,-0.16437 -0.5071265,-0.11495 -0.455037,-0.23252 0.224557,-0.1037 0.6202147,-0.0269 0.7526933,-0.19768 -0.096056,-0.1247 -0.4688995,-0.10108 -0.429949,-0.3971 0.6148988,-0.0283 -0.2340545,-0.21934 -0.326094,-0.32457 -0.21248,-0.1375 -0.4290626,-0.35848 -0.6660957,-0.43633 -0.2219921,-0.30108 0.3184391,-0.27566 0.4960943,-0.364 0.2658048,-0.0282 0.5271575,-0.0795 0.562241,-0.2646 0.1193754,-0.24484 -0.335573,-0.18752 -0.463022,-0.3638 -0.1627899,0.0457 -0.2375875,-0.14167 -0.099219,-0.1986 0.1169516,-0.12267 0.0534,-0.33958 -0.132292,-0.3639 0.2948357,0.0441 0.3545909,-0.24097 0.198438,-0.364 -0.1972117,-0.18033 -0.3440601,-0.30755 -0.4690276,-0.41658 0.1258467,-0.14921 0.5323265,-0.18306 0.3367356,-0.44342 -0.3270595,-0.0389 0.09189,-0.38327 -0.1068998,-0.44376 0,0 -0.2681084,0.0453 -0.3230345,0.14683 z"

       id="path4485"
       inkscape:connector-curvature="0"
       sodipodi:nodetypes="cccccccccccccccccccccccccccccccccccccccccccccc" />
  </g>
</svg>
