<?xml version="1.0" encoding="UTF-8" standalone="no"?>
<!-- Created with Inkscape (http://www.inkscape.org/) -->

<svg
   xmlns:dc="http://purl.org/dc/elements/1.1/"
   xmlns:cc="http://creativecommons.org/ns#"
   xmlns:rdf="http://www.w3.org/1999/02/22-rdf-syntax-ns#"
   xmlns:svg="http://www.w3.org/2000/svg"
   xmlns="http://www.w3.org/2000/svg"
   xmlns:sodipodi="http://sodipodi.sourceforge.net/DTD/sodipodi-0.dtd"
   xmlns:inkscape="http://www.inkscape.org/namespaces/inkscape"
   width="120"
   height="120"
   viewBox="0 0 31.749999 31.750001"
   version="1.1"
   id="svg4825"
   inkscape:export-filename="/home/magogato/move-icon.png"
   inkscape:export-xdpi="96"
   inkscape:export-ydpi="96"
   inkscape:version="0.92.3 (unknown)"
   sodipodi:docname="move-icon.svg">
  <defs
     id="defs4819" />
  <sodipodi:namedview
     id="base"
     pagecolor="#ffffff"
     bordercolor="#666666"
     borderopacity="1.0"
     inkscape:pageopacity="0.0"
     inkscape:pageshadow="2"
     inkscape:zoom="2.8284271"
     inkscape:cx="37.904231"
     inkscape:cy="-25.559614"
     inkscape:document-units="mm"
     inkscape:current-layer="layer3"
     showgrid="false"
     units="px"
     inkscape:window-width="2736"
     inkscape:window-height="1732"
     inkscape:window-x="0"
     inkscape:window-y="0"
     inkscape:window-maximized="1" />
  <metadata
     id="metadata4822">
    <rdf:RDF>
      <cc:Work
         rdf:about="">
        <dc:format>image/svg+xml</dc:format>
        <dc:type
           rdf:resource="http://purl.org/dc/dcmitype/StillImage" />
        <dc:title></dc:title>
      </cc:Work>
    </rdf:RDF>
  </metadata>
  <g
     inkscape:groupmode="layer"
     id="layer3"
     inkscape:label="bg">
    <rect
       style="fill:#ffffff;fill-opacity:1;stroke:none;stroke-width:1.05833328;stroke-linecap:round;stroke-linejoin:round;stroke-miterlimit:4;stroke-dasharray:none;stroke-opacity:1"
       id="rect5469"
       width="32.179253"
       height="32.179253"
       x="0.093544334"
       y="0.13201489" />
  </g>
  <g
     inkscape:label="Layer 1"
     inkscape:groupmode="layer"
     id="layer1"
     transform="translate(0,-265.24998)">
    <path
       style="fill:#ffffff;fill-opacity:1;stroke:#5d4640;stroke-width:1.05833333;stroke-linecap:round;stroke-linejoin:round;stroke-miterlimit:4;stroke-dasharray:none;stroke-opacity:1"
       d="m 9.5322854,272.25473 c -0.6729138,0.38847 -0.7149694,6.96016 -0.715006,7.73716 -4.42e-5,0.77698 0.041306,7.34838 0.7141804,7.73691 0.5035502,0.29076 3.8280192,-1.45517 5.7519752,-2.51541 0.0026,0.0245 0.0078,0.049 0.01813,0.0728 l 1.995204,4.60106 c 0.05923,0.13674 0.224377,0.19126 0.353482,0.11684 l 2.94027,-1.69758 c 0.132256,-0.0768 0.164858,-0.25345 0.06876,-0.37242 l -3.178234,-3.91775 c -0.01217,-0.015 -0.02615,-0.0276 -0.04089,-0.0392 1.756359,-1.0473 5.492529,-3.35113 5.492565,-3.98479 4.3e-5,-0.77699 -5.67001,-4.09921 -6.342889,-4.48775 -0.672874,-0.38852 -6.384643,-3.63839 -7.0575613,-3.24994 z"
       id="path5463"
       inkscape:connector-curvature="0" />
  </g>
</svg>
