<?xml version="1.0" encoding="UTF-8" standalone="no"?>
<svg
   xmlns="http://www.w3.org/2000/svg" 
   xmlns:xlink="http://www.w3.org/1999/xlink"
   width="20"
   height="20"
   viewBox="0 0 5.2916665 5.2916668"
   x="0px" y="0px"
   version="1.1"
   id="new-battle"
 >
  <g transform="translate(0,-291.70832)">
    <path style="opacity:1;vector-effect:none;fill:#000000;fill-opacity:1;stroke:none;stroke-width:0;stroke-linecap:round;stroke-linejoin:round;stroke-miterlimit:4;stroke-dasharray:none;stroke-dashoffset:0;stroke-opacity:1"
       d="m 4.6930143,292.07731 -0.903821,0.15968 -1.139465,1.13998 -1.153418,-1.15497 -0.91518896,-0.10594 0.15967997,0.90382 1.13326399,1.13275 -0.367419,0.36742 -0.02997,-0.03 c -0.16192,-0.16281 -0.384061,-0.20287 -0.49816099,-0.0894 l -0.0155,0.0155 c -0.114099,0.11347 -0.07562,0.33586 0.0863,0.49868 l 0.187586,0.18862 -0.38447296,0.39222 a 0.56267757,0.56267757 0 0 0 -0.111621,-0.0114 0.56267757,0.56267757 0 0 0 -0.56275697,0.56276 0.56267757,0.56267757 0 0 0 0.56275697,0.56275 0.56267757,0.56267757 0 0 0 0.56275596,-0.56275 0.56267757,0.56267757 0 0 0 -0.0057,-0.0734 l 0.001,10e-4 0.403076,-0.40308 0.184485,0.18552 c 0.16192,0.16282 0.384578,0.20236 0.498677,0.0889 l 0.0155,-0.0155 c 0.114105,-0.11347 0.07563,-0.33586 -0.0863,-0.49867 l -0.03462,-0.0346 0.369487,-0.36949 0.374654,0.37465 -0.02997,0.03 c -0.162815,0.16192 -0.202873,0.38406 -0.0894,0.49816 l 0.0155,0.0155 c 0.113473,0.1141 0.335863,0.0756 0.498678,-0.0863 l 0.188618,-0.18758 0.392225,0.38447 a 0.56267757,0.56267757 0 0 0 -0.01137,0.11162 0.56267757,0.56267757 0 0 0 0.562757,0.56276 0.56267757,0.56267757 0 0 0 0.562756,-0.56276 0.56267757,0.56267757 0 0 0 -0.562756,-0.56275 0.56267757,0.56267757 0 0 0 -0.07338,0.006 l 0.001,-0.001 -0.403074,-0.40308 0.185518,-0.18448 c 0.162815,-0.16192 0.202357,-0.38458 0.08888,-0.49868 l -0.0155,-0.0155 c -0.113473,-0.1141 -0.335864,-0.0756 -0.498679,0.0863 l -0.03462,0.0346 -0.375688,-0.3762 1.161687,-1.16066 z"
       id="path4645" />
  </g>
</svg>
