<?xml version="1.0" encoding="UTF-8" standalone="no"?>
<svg
   xmlns:dc="http://purl.org/dc/elements/1.1/"
   xmlns:cc="http://creativecommons.org/ns#"
   xmlns:rdf="http://www.w3.org/1999/02/22-rdf-syntax-ns#"
   xmlns:svg="http://www.w3.org/2000/svg"
   xmlns="http://www.w3.org/2000/svg"
   xmlns:sodipodi="http://sodipodi.sourceforge.net/DTD/sodipodi-0.dtd"
   xmlns:inkscape="http://www.inkscape.org/namespaces/inkscape"
   version="1.1"
   width="2in"
   height="2in"
   id="svg3827"
   sodipodi:docname="sticker-logo.svg"
   inkscape:version="0.92.3 (unknown)"
   inkscape:export-filename="/home/magogato/Downloads/favicon.png"
   inkscape:export-xdpi="89.400002"
   inkscape:export-ydpi="89.400002">
  <metadata
     id="metadata3833">
    <rdf:RDF>
      <cc:Work
         rdf:about="">
        <dc:format>image/svg+xml</dc:format>
        <dc:type
           rdf:resource="http://purl.org/dc/dcmitype/StillImage" />
        <dc:title></dc:title>
      </cc:Work>
    </rdf:RDF>
  </metadata>
  <defs
     id="defs3831" />
  <sodipodi:namedview
     pagecolor="#ffffff"
     bordercolor="#666666"
     borderopacity="1"
     objecttolerance="10"
     gridtolerance="10"
     guidetolerance="10"
     inkscape:pageopacity="0"
     inkscape:pageshadow="2"
     inkscape:window-width="1713"
     inkscape:window-height="1481"
     id="namedview3829"
     showgrid="false"
     inkscape:zoom="2.8284271"
     inkscape:cx="118.62433"
     inkscape:cy="40.717361"
     inkscape:window-x="785"
     inkscape:window-y="89"
     inkscape:window-maximized="0"
     inkscape:current-layer="layer2"
     inkscape:pagecheckerboard="true"
     inkscape:snap-page="true"
     units="in" />
  <g
     inkscape:groupmode="layer"
     id="layer1"
     inkscape:label="logo"
     style="display:inline">
    <path
       style="color:#000000;font-style:normal;font-variant:normal;font-weight:normal;font-stretch:normal;font-size:medium;line-height:normal;font-family:none;font-variant-ligatures:normal;font-variant-position:normal;font-variant-caps:normal;font-variant-numeric:normal;font-variant-alternates:normal;font-feature-settings:normal;text-indent:0;text-align:start;text-decoration:none;text-decoration-line:none;text-decoration-style:solid;text-decoration-color:#000000;letter-spacing:normal;word-spacing:normal;text-transform:none;writing-mode:lr-tb;direction:ltr;text-orientation:mixed;dominant-baseline:auto;baseline-shift:baseline;text-anchor:start;white-space:normal;shape-padding:0;clip-rule:nonzero;display:inline;overflow:visible;visibility:visible;opacity:1;isolation:auto;mix-blend-mode:normal;color-interpolation:sRGB;color-interpolation-filters:linearRGB;solid-color:#000000;solid-opacity:1;vector-effect:none;fill:#fcfcfc;fill-opacity:0.94117647;fill-rule:nonzero;stroke:none;stroke-width:6.19125652;stroke-linecap:round;stroke-linejoin:round;stroke-miterlimit:10;stroke-dasharray:none;stroke-dashoffset:0;stroke-opacity:1;color-rendering:auto;image-rendering:auto;shape-rendering:auto;text-rendering:auto;enable-background:accumulate"
       d="m 49.524598,7.4511082 c -0.605805,0.020179 -1.192346,0.2178294 -1.686876,0.5683389 -0.07501,0.053171 -0.147658,0.1096714 -0.217678,0.1692996 -0.01211,0.00807 -0.02421,0.016143 -0.03632,0.024215 -0.06487,0.055845 -0.127428,0.1143125 -0.18746,0.1753531 -0.01009,0.010089 -0.02018,0.020179 -0.03027,0.030268 L 16.712159,39.072548 c -0.906181,0.691454 -1.359113,1.824919 -1.179002,2.950453 V 165.35839 c 1.71e-4,1.70959 1.386031,3.09545 3.095628,3.09563 H 173.41019 c 1.70959,-1.8e-4 3.09545,-1.38604 3.09562,-3.09563 V 10.576965 c -1.7e-4,-1.7096024 -1.38603,-3.0954626 -3.09564,-3.0956291 H 50.038515 c -0.170157,-0.024214 -0.34208,-0.034304 -0.513922,-0.030268 z"
       id="path3793-7"
       inkscape:connector-curvature="0"
       sodipodi:nodetypes="ccccccccccccccccc" />
    <path
       inkscape:connector-curvature="0"
       id="path3807-6"
       d="m 96.019449,66.298337 c 14.556351,0 27.682971,8.493247 33.725411,21.645213 -4.48098,9.780872 -12.84942,17.00732 -22.84839,20.06717 -3.46718,1.06101 -7.125691,1.62641 -10.877021,1.62641 -11.25398,0 -21.67158,-5.06945 -28.61038,-13.446635 -2.0417,-2.464958 -3.75545,-5.229756 -5.12713,-8.222761 2.92757,-6.384464 7.50715,-11.685759 13.13223,-15.43582 5.97544,-3.983624 13.10263,-6.233577 20.60528,-6.233577 z"
       style="color:#000000;font-style:normal;font-variant:normal;font-weight:normal;font-stretch:normal;font-size:medium;line-height:normal;font-family:none;font-variant-ligatures:normal;font-variant-position:normal;font-variant-caps:normal;font-variant-numeric:normal;font-variant-alternates:normal;font-feature-settings:normal;text-indent:0;text-align:start;text-decoration:none;text-decoration-line:none;text-decoration-style:solid;text-decoration-color:#000000;letter-spacing:normal;word-spacing:normal;text-transform:none;writing-mode:lr-tb;direction:ltr;text-orientation:mixed;dominant-baseline:auto;baseline-shift:baseline;text-anchor:start;white-space:normal;shape-padding:0;clip-rule:nonzero;display:inline;overflow:visible;visibility:visible;opacity:1;isolation:auto;mix-blend-mode:normal;color-interpolation:sRGB;color-interpolation-filters:linearRGB;solid-color:#000000;solid-opacity:1;vector-effect:none;fill:#ffffff;fill-opacity:1;fill-rule:nonzero;stroke:none;stroke-width:6.19125652;stroke-linecap:round;stroke-linejoin:round;stroke-miterlimit:10;stroke-dasharray:none;stroke-dashoffset:0;stroke-opacity:1;color-rendering:auto;image-rendering:auto;shape-rendering:auto;text-rendering:auto;enable-background:accumulate"
       sodipodi:nodetypes="sccscccs" />
    <g
       id="g4742"
       transform="matrix(5.0446822,0,0,5.0446822,15.075949,7.0242345)">
      <path
         inkscape:connector-curvature="0"
         id="path3793"
         d="m 6.8286991,0.08463113 a 0.61370321,0.61370321 0 0 0 -0.3343869,0.11266097 0.61370321,0.61370321 0 0 0 -0.043145,0.03356 0.61370321,0.61370321 0 0 0 -0.0072,0.004787 0.61370321,0.61370321 0 0 0 -0.037157,0.0347567 0.61370321,0.61370321 0 0 0 -0.00601,0.006014 L 0.32433515,6.3529003 A 0.61370321,0.61370321 0 0 0 0.09062393,6.9377642 V 31.386358 A 0.61370321,0.61370321 0 0 0 0.70426584,32 H 31.386358 A 0.61370321,0.61370321 0 0 0 32,31.386358 V 0.70426584 A 0.61370321,0.61370321 0 0 0 31.386358,0.09062395 H 6.9305728 A 0.61370321,0.61370321 0 0 0 6.8286987,0.08461026 Z M 7.454326,1.3179076 h 23.31839 V 30.772716 H 1.3179075 V 7.454326 h 5.5227766 a 0.61370321,0.61370321 0 0 0 0.2385054,-0.047944 0.61370321,0.61370321 0 0 0 0.19416,-0.1306387 0.61370321,0.61370321 0 0 0 0.00122,-0.00122 c 3.92e-4,-3.92e-4 7.976e-4,-7.976e-4 0.00122,-0.00122 a 0.61370321,0.61370321 0 0 0 0.125859,-0.1869832 c 0.00196,-0.00448 0.00411,-0.00862 0.00601,-0.013187 a 0.61370321,0.61370321 0 0 0 0.046664,-0.2324489 z"
         style="color:#000000;font-style:normal;font-variant:normal;font-weight:normal;font-stretch:normal;font-size:medium;line-height:normal;font-family:none;font-variant-ligatures:normal;font-variant-position:normal;font-variant-caps:normal;font-variant-numeric:normal;font-variant-alternates:normal;font-feature-settings:normal;text-indent:0;text-align:start;text-decoration:none;text-decoration-line:none;text-decoration-style:solid;text-decoration-color:#000000;letter-spacing:normal;word-spacing:normal;text-transform:none;writing-mode:lr-tb;direction:ltr;text-orientation:mixed;dominant-baseline:auto;baseline-shift:baseline;text-anchor:start;white-space:normal;shape-padding:0;clip-rule:nonzero;display:inline;overflow:visible;visibility:visible;opacity:1;isolation:auto;mix-blend-mode:normal;color-interpolation:sRGB;color-interpolation-filters:linearRGB;solid-color:#000000;solid-opacity:1;vector-effect:none;fill:#5d4640;fill-opacity:1;fill-rule:nonzero;stroke:none;stroke-width:1.22728372;stroke-linecap:round;stroke-linejoin:round;stroke-miterlimit:10;stroke-dasharray:none;stroke-dashoffset:0;stroke-opacity:1;color-rendering:auto;image-rendering:auto;shape-rendering:auto;text-rendering:auto;enable-background:accumulate" />
      <path
         inkscape:connector-curvature="0"
         id="path3797"
         d="m 28.922203,2.5368015 a 0.61370321,0.61370321 0 0 0 -0.08749,0.00839 H 27.090867 A 0.61370321,0.61370321 0 0 0 26.657004,3.592697 l 0.486598,0.4865991 -1.713883,1.7138827 a 0.61370321,0.61370321 0 1 0 0.867729,0.8677275 l 1.713881,-1.7138826 0.4866,0.4865989 a 0.61370321,0.61370321 0 0 0 1.047502,-0.433861 V 3.1588332 a 0.61370321,0.61370321 0 0 0 0,-0.00959 0.61370321,0.61370321 0 0 0 -0.0023,-0.051534 0.61370321,0.61370321 0 0 0 -0.0012,-0.00959 0.61370321,0.61370321 0 0 0 0,-0.0024 0.61370321,0.61370321 0 0 0 -0.619634,-0.5489217 z"
         style="color:#000000;font-style:normal;font-variant:normal;font-weight:normal;font-stretch:normal;font-size:medium;line-height:normal;font-family:none;font-variant-ligatures:normal;font-variant-position:normal;font-variant-caps:normal;font-variant-numeric:normal;font-variant-alternates:normal;font-feature-settings:normal;text-indent:0;text-align:start;text-decoration:none;text-decoration-line:none;text-decoration-style:solid;text-decoration-color:#000000;letter-spacing:normal;word-spacing:normal;text-transform:none;writing-mode:lr-tb;direction:ltr;text-orientation:mixed;dominant-baseline:auto;baseline-shift:baseline;text-anchor:start;white-space:normal;shape-padding:0;clip-rule:nonzero;display:inline;overflow:visible;visibility:visible;opacity:1;isolation:auto;mix-blend-mode:normal;color-interpolation:sRGB;color-interpolation-filters:linearRGB;solid-color:#000000;solid-opacity:1;vector-effect:none;fill:#ff572c;fill-opacity:1;fill-rule:nonzero;stroke:none;stroke-width:1.22728372;stroke-linecap:round;stroke-linejoin:round;stroke-miterlimit:10;stroke-dasharray:none;stroke-dashoffset:0;stroke-opacity:1;color-rendering:auto;image-rendering:auto;shape-rendering:auto;text-rendering:auto;enable-background:accumulate" />
      <path
         inkscape:connector-curvature="0"
         id="path3803"
         d="m 16.153177,12.58279 a 1.534258,1.534258 0 0 0 -1.510132,1.555677 v 3.681852 a 1.534258,1.534258 0 1 0 3.068208,0 V 14.138467 A 1.534258,1.534258 0 0 0 16.153177,12.58279 Z"
         style="color:#000000;font-style:normal;font-variant:normal;font-weight:normal;font-stretch:normal;font-size:medium;line-height:normal;font-family:none;font-variant-ligatures:normal;font-variant-position:normal;font-variant-caps:normal;font-variant-numeric:normal;font-variant-alternates:normal;font-feature-settings:normal;text-indent:0;text-align:start;text-decoration:none;text-decoration-line:none;text-decoration-style:solid;text-decoration-color:#000000;letter-spacing:normal;word-spacing:normal;text-transform:none;writing-mode:lr-tb;direction:ltr;text-orientation:mixed;dominant-baseline:auto;baseline-shift:baseline;text-anchor:start;white-space:normal;shape-padding:0;clip-rule:nonzero;display:inline;overflow:visible;visibility:visible;opacity:1;isolation:auto;mix-blend-mode:normal;color-interpolation:sRGB;color-interpolation-filters:linearRGB;solid-color:#000000;solid-opacity:1;vector-effect:none;fill:#5d4640;fill-opacity:1;fill-rule:nonzero;stroke:none;stroke-width:3.06820917;stroke-linecap:round;stroke-linejoin:round;stroke-miterlimit:10;stroke-dasharray:none;stroke-dashoffset:0;stroke-opacity:1;color-rendering:auto;image-rendering:auto;shape-rendering:auto;text-rendering:auto;enable-background:accumulate" />
      <path
         inkscape:connector-curvature="0"
         id="path3805"
         d="m 16.167561,13.516436 a 0.61370321,0.61370321 0 0 0 -0.604055,0.622031 v 3.681852 a 0.61370321,0.61370321 0 1 0 1.227285,0 v -3.681852 a 0.61370321,0.61370321 0 0 0 -0.62323,-0.622031 z"
         style="color:#000000;font-style:normal;font-variant:normal;font-weight:normal;font-stretch:normal;font-size:medium;line-height:normal;font-family:none;font-variant-ligatures:normal;font-variant-position:normal;font-variant-caps:normal;font-variant-numeric:normal;font-variant-alternates:normal;font-feature-settings:normal;text-indent:0;text-align:start;text-decoration:none;text-decoration-line:none;text-decoration-style:solid;text-decoration-color:#000000;letter-spacing:normal;word-spacing:normal;text-transform:none;writing-mode:lr-tb;direction:ltr;text-orientation:mixed;dominant-baseline:auto;baseline-shift:baseline;text-anchor:start;white-space:normal;shape-padding:0;clip-rule:nonzero;display:inline;overflow:visible;visibility:visible;opacity:1;isolation:auto;mix-blend-mode:normal;color-interpolation:sRGB;color-interpolation-filters:linearRGB;solid-color:#000000;solid-opacity:1;vector-effect:none;fill:#f2aad4;fill-opacity:1;fill-rule:nonzero;stroke:none;stroke-width:1.22728372;stroke-linecap:round;stroke-linejoin:round;stroke-miterlimit:10;stroke-dasharray:none;stroke-dashoffset:0;stroke-opacity:1;color-rendering:auto;image-rendering:auto;shape-rendering:auto;text-rendering:auto;enable-background:accumulate" />
      <path
         inkscape:connector-curvature="0"
         id="path3807"
         d="m 16.045312,10.522535 c -0.866611,0 -1.712713,0.130685 -2.514493,0.376335 -0.801781,0.245651 -1.559532,0.605824 -2.25082,1.066682 -0.691287,0.460859 -1.3153825,1.022715 -1.850513,1.668339 -0.511576,0.617206 -0.9387284,1.313438 -1.266835,2.07224 a 0.61370321,0.61370321 0 0 0 -0.058726,0.113859 0.61370321,0.61370321 0 0 0 -0.019176,0.05873 0.61370321,0.61370321 0 0 0 -0.011984,0.05993 0.61370321,0.61370321 0 0 0 -0.00839,0.101878 0.61370321,0.61370321 0 0 0 0,0.0072 0.61370321,0.61370321 0 0 0 0,0.0049 0.61370321,0.61370321 0 0 0 0.00122,0.01678 0.61370321,0.61370321 0 0 0 0.00959,0.100676 0.61370321,0.61370321 0 0 0 0.01558,0.05993 0.61370321,0.61370321 0 0 0 0.020374,0.05753 0.61370321,0.61370321 0 0 0 0.051533,0.09708 c 0.6712049,1.552746 1.7651517,2.839114 3.117349,3.74058 1.382536,0.921726 3.032061,1.443023 4.76528,1.443023 1.733221,0 3.38274,-0.521301 4.765313,-1.443017 1.373694,-0.915797 2.482838,-2.227619 3.150907,-3.813688 2.07e-4,-4.91e-4 9.82e-4,-7.37e-4 0.0012,-0.0012 a 0.6141028,0.6141028 0 0 0 0.0012,-0.0023 c 0.0037,-0.0089 0.0083,-0.0174 0.01199,-0.02637 a 0.6141028,0.6141028 0 0 0 0.0049,-0.01318 0.6141028,0.6141028 0 0 0 0.01199,-0.03595 0.6141028,0.6141028 0 0 0 0.0036,-0.0084 0.6141028,0.6141028 0 0 0 0.0023,-0.0096 0.6141028,0.6141028 0 0 0 0.0096,-0.03476 0.6141028,0.6141028 0 0 0 0.0061,-0.03116 0.6141028,0.6141028 0 0 0 0.0049,-0.03475 0.6141028,0.6141028 0 0 0 0.0012,-0.01079 0.6141028,0.6141028 0 0 0 0,-0.0072 0.6141028,0.6141028 0 0 0 0.0023,-0.05393 0.6141028,0.6141028 0 0 0 -0.0012,-0.04315 0.6141028,0.6141028 0 0 0 -0.006,-0.04674 0.6141028,0.6141028 0 0 0 -0.01078,-0.05513 0.6141028,0.6141028 0 0 0 -0.0012,-0.0049 0.6141028,0.6141028 0 0 0 -0.0023,-0.006 0.6141028,0.6141028 0 0 0 -0.01199,-0.04194 0.6141028,0.6141028 0 0 0 -0.0036,-0.01079 0.6141028,0.6141028 0 0 0 -0.0096,-0.02396 0.6141028,0.6141028 0 0 0 -0.0012,-0.0012 c -6.14e-4,-0.0015 -5.72e-4,-0.0033 -0.0012,-0.0049 a 0.6141028,0.6141028 0 0 0 -0.0049,-0.0096 C 22.63174,12.602824 19.506004,10.522535 16.045312,10.522535 Z m 0,1.227284 c 2.885483,0 5.487554,1.683604 6.685339,4.290699 -0.888259,1.938848 -2.547123,3.371337 -4.529203,3.977885 -0.687295,0.210324 -1.412516,0.322402 -2.156136,0.322402 -2.23086,0 -4.295927,-1.00491 -5.671394,-2.665507 -0.404724,-0.488625 -0.7444371,-1.036687 -1.0163439,-1.629986 0.5803285,-1.265583 1.4881309,-2.316451 2.6031839,-3.05982 1.184502,-0.789668 2.597314,-1.235673 4.084554,-1.235673 z"
         style="color:#000000;font-style:normal;font-variant:normal;font-weight:normal;font-stretch:normal;font-size:medium;line-height:normal;font-family:none;font-variant-ligatures:normal;font-variant-position:normal;font-variant-caps:normal;font-variant-numeric:normal;font-variant-alternates:normal;font-feature-settings:normal;text-indent:0;text-align:start;text-decoration:none;text-decoration-line:none;text-decoration-style:solid;text-decoration-color:#000000;letter-spacing:normal;word-spacing:normal;text-transform:none;writing-mode:lr-tb;direction:ltr;text-orientation:mixed;dominant-baseline:auto;baseline-shift:baseline;text-anchor:start;white-space:normal;shape-padding:0;clip-rule:nonzero;display:inline;overflow:visible;visibility:visible;opacity:1;isolation:auto;mix-blend-mode:normal;color-interpolation:sRGB;color-interpolation-filters:linearRGB;solid-color:#000000;solid-opacity:1;vector-effect:none;fill:#5d4640;fill-opacity:1;fill-rule:nonzero;stroke:none;stroke-width:1.22728372;stroke-linecap:round;stroke-linejoin:round;stroke-miterlimit:10;stroke-dasharray:none;stroke-dashoffset:0;stroke-opacity:1;color-rendering:auto;image-rendering:auto;shape-rendering:auto;text-rendering:auto;enable-background:accumulate" />
    </g>
  </g>
  <g
     inkscape:groupmode="layer"
     id="layer2"
     inkscape:label="text">
    <path
       inkscape:connector-curvature="0"
       id="path4853"
       style="font-style:normal;font-variant:normal;font-weight:bold;font-stretch:normal;font-size:medium;line-height:1.25;font-family:Ubuntu;-inkscape-font-specification:'Ubuntu Bold';text-align:center;letter-spacing:0px;word-spacing:0px;text-anchor:middle;fill:#5d4640;fill-opacity:1;stroke:none"
       d="m 21.024751,171.35251 q 0.336,0.616 0.765333,1.53067 0.448,0.896 0.914667,1.96 0.485333,1.04533 0.952,2.14667 0.466666,1.10133 0.877333,2.072 0.410667,-0.97067 0.877333,-2.072 0.466667,-1.10134 0.933334,-2.14667 0.485333,-1.064 0.914666,-1.96 0.448,-0.91467 0.784,-1.53067 h 2.650667 q 0.186667,1.288 0.336,2.89334 0.168,1.58666 0.28,3.32266 0.130667,1.71734 0.224,3.45334 0.112,1.736 0.186667,3.26666 h -2.837334 q -0.056,-1.88533 -0.149333,-4.10666 -0.09333,-2.22134 -0.28,-4.48 -0.336,0.784 -0.746667,1.736 -0.410666,0.952 -0.821333,1.904 -0.392,0.952 -0.765333,1.82933 -0.373334,0.85867 -0.634667,1.47467 h -2.034667 q -0.261333,-0.616 -0.634666,-1.47467 -0.373333,-0.87733 -0.784,-1.82933 -0.392,-0.952 -0.802667,-1.904 -0.410666,-0.952 -0.746666,-1.736 -0.186667,2.25866 -0.28,4.48 -0.09333,2.22133 -0.149334,4.10666 h -2.837333 q 0.07467,-1.53066 0.168,-3.26666 0.112,-1.736 0.224,-3.45334 0.130667,-1.736 0.28,-3.32266 0.168,-1.60534 0.354667,-2.89334 z" />
    <path
       inkscape:connector-curvature="0"
       id="path4855"
       style="font-style:normal;font-variant:normal;font-weight:bold;font-stretch:normal;font-size:medium;line-height:1.25;font-family:Ubuntu;-inkscape-font-specification:'Ubuntu Bold';text-align:center;letter-spacing:0px;word-spacing:0px;text-anchor:middle;fill:#5d4640;fill-opacity:1;stroke:none"
       d="m 42.985792,184.28851 q -0.205333,-0.672 -0.466666,-1.38133 -0.242667,-0.70933 -0.485334,-1.41867 h -5.039999 q -0.242667,0.70934 -0.504,1.41867 -0.242667,0.70933 -0.448,1.38133 h -3.024 q 0.728,-2.09066 1.381333,-3.864 0.653333,-1.77333 1.269333,-3.34133 0.634667,-1.568 1.232,-2.968 0.616,-1.41867 1.269334,-2.76267 h 2.781333 q 0.634666,1.344 1.250666,2.76267 0.616,1.4 1.232,2.968 0.634667,1.568 1.288,3.34133 0.653334,1.77334 1.381334,3.864 z m -3.490666,-10.00533 q -0.09333,0.28 -0.28,0.76533 -0.186667,0.48534 -0.429333,1.12 -0.242667,0.63467 -0.541334,1.4 -0.28,0.76534 -0.578666,1.60534 h 3.677333 q -0.298667,-0.84 -0.578667,-1.60534 -0.28,-0.76533 -0.541333,-1.4 -0.242667,-0.63466 -0.429333,-1.12 -0.186667,-0.48533 -0.298667,-0.76533 z" />
    <path
       inkscape:connector-curvature="0"
       id="path4857"
       style="font-style:normal;font-variant:normal;font-weight:bold;font-stretch:normal;font-size:medium;line-height:1.25;font-family:Ubuntu;-inkscape-font-specification:'Ubuntu Bold';text-align:center;letter-spacing:0px;word-spacing:0px;text-anchor:middle;fill:#5d4640;fill-opacity:1;stroke:none"
       d="m 51.660251,171.20318 q 2.893333,0 4.442666,1.02667 1.549334,1.008 1.549334,3.32266 0,2.33334 -1.568,3.37867 -1.568,1.02667 -4.48,1.02667 h -0.914667 v 4.33066 h -2.912 v -12.74933 q 0.952,-0.18667 2.016,-0.26133 1.064,-0.0747 1.866667,-0.0747 z m 0.186667,2.48267 q -0.317334,0 -0.634667,0.0187 -0.298667,0.0187 -0.522667,0.0373 v 3.73333 h 0.914667 q 1.512,0 2.277333,-0.41067 0.765333,-0.41066 0.765333,-1.53066 0,-0.54134 -0.205333,-0.896 -0.186667,-0.35467 -0.56,-0.56 -0.354667,-0.224 -0.877333,-0.29867 -0.522667,-0.0933 -1.157333,-0.0933 z" />
    <path
       inkscape:connector-curvature="0"
       id="path4859"
       style="font-style:normal;font-variant:normal;font-weight:bold;font-stretch:normal;font-size:medium;line-height:1.25;font-family:Ubuntu;-inkscape-font-specification:'Ubuntu Bold';text-align:center;letter-spacing:0px;word-spacing:0px;text-anchor:middle;fill:#5d4640;fill-opacity:1;stroke:none"
       d="m 62.720834,181.91785 q 0.205334,0.0187 0.466667,0.0373 0.28,0 0.653333,0 2.184,0 3.229333,-1.10133 1.064,-1.10134 1.064,-3.04267 0,-2.03467 -1.008,-3.08 -1.008,-1.04533 -3.191999,-1.04533 -0.298667,0 -0.616,0.0187 -0.317334,0 -0.597334,0.0373 z m 8.418667,-4.10667 q 0,1.68 -0.522667,2.93067 -0.522667,1.25066 -1.493333,2.072 -0.952,0.82133 -2.333334,1.232 -1.381333,0.41066 -3.098666,0.41066 -0.784,0 -1.829333,-0.0747 -1.045334,-0.056 -2.053334,-0.26134 v -12.6 q 1.008,-0.18666 2.090667,-0.24266 1.101333,-0.0747 1.885333,-0.0747 1.661333,0 3.005333,0.37333 1.362667,0.37334 2.333334,1.176 0.970666,0.80267 1.493333,2.05334 0.522667,1.25066 0.522667,3.00533 z" />
    <path
       inkscape:connector-curvature="0"
       id="path4861"
       style="font-style:normal;font-variant:normal;font-weight:bold;font-stretch:normal;font-size:medium;line-height:1.25;font-family:Ubuntu;-inkscape-font-specification:'Ubuntu Bold';text-align:center;letter-spacing:0px;word-spacing:0px;text-anchor:middle;fill:#5d4640;fill-opacity:1;stroke:none"
       d="m 73.553623,184.28851 v -12.936 h 8.736 v 2.44534 h -5.824 v 2.53866 h 5.170667 v 2.38934 h -5.170667 v 3.11733 h 6.253334 v 2.44533 z" />
    <path
       inkscape:connector-curvature="0"
       id="path4863"
       style="font-style:normal;font-variant:normal;font-weight:bold;font-stretch:normal;font-size:medium;line-height:1.25;font-family:Ubuntu;-inkscape-font-specification:'Ubuntu Bold';text-align:center;letter-spacing:0px;word-spacing:0px;text-anchor:middle;fill:#5d4640;fill-opacity:1;stroke:none"
       d="m 88.290376,171.35251 q 0.336,0.616 0.765333,1.53067 0.448,0.896 0.914667,1.96 0.485333,1.04533 0.952,2.14667 0.466666,1.10133 0.877333,2.072 0.410667,-0.97067 0.877333,-2.072 0.466667,-1.10134 0.933334,-2.14667 0.485333,-1.064 0.914666,-1.96 0.448,-0.91467 0.784,-1.53067 h 2.650667 q 0.186667,1.288 0.336,2.89334 0.168,1.58666 0.28,3.32266 0.130667,1.71734 0.224,3.45334 0.112,1.736 0.186667,3.26666 h -2.837334 q -0.056,-1.88533 -0.149333,-4.10666 -0.09333,-2.22134 -0.28,-4.48 -0.336,0.784 -0.746667,1.736 -0.410666,0.952 -0.821333,1.904 -0.392,0.952 -0.765333,1.82933 -0.373334,0.85867 -0.634667,1.47467 h -2.034667 q -0.261333,-0.616 -0.634666,-1.47467 -0.373333,-0.87733 -0.784,-1.82933 -0.392,-0.952 -0.802667,-1.904 -0.410666,-0.952 -0.746666,-1.736 -0.186667,2.25866 -0.28,4.48 -0.09333,2.22133 -0.149334,4.10666 h -2.837333 q 0.07467,-1.53066 0.168,-3.26666 0.112,-1.736 0.224,-3.45334 0.130667,-1.736 0.28,-3.32266 0.168,-1.60534 0.354667,-2.89334 z" />
    <path
       inkscape:connector-curvature="0"
       id="path4865"
       style="font-style:normal;font-variant:normal;font-weight:bold;font-stretch:normal;font-size:medium;line-height:1.25;font-family:Ubuntu;-inkscape-font-specification:'Ubuntu Bold';text-align:center;letter-spacing:0px;word-spacing:0px;text-anchor:middle;fill:#5d4640;fill-opacity:1;stroke:none"
       d="m 104.03542,177.81118 q 0,0.952 0.224,1.71733 0.24266,0.76534 0.672,1.32534 0.448,0.54133 1.08266,0.84 0.63467,0.29866 1.456,0.29866 0.80267,0 1.43734,-0.29866 0.65333,-0.29867 1.08266,-0.84 0.448,-0.56 0.672,-1.32534 0.24267,-0.76533 0.24267,-1.71733 0,-0.952 -0.24267,-1.71733 -0.224,-0.784 -0.672,-1.32534 -0.42933,-0.56 -1.08266,-0.85866 -0.63467,-0.29867 -1.43734,-0.29867 -0.82133,0 -1.456,0.31733 -0.63466,0.29867 -1.08266,0.85867 -0.42934,0.54133 -0.672,1.32533 -0.224,0.76534 -0.224,1.69867 z m 9.87466,0 q 0,1.66133 -0.504,2.93067 -0.48533,1.25066 -1.344,2.10933 -0.85866,0.84 -2.05333,1.26933 -1.176,0.42934 -2.53867,0.42934 -1.32533,0 -2.50133,-0.42934 -1.176,-0.42933 -2.05333,-1.26933 -0.87734,-0.85867 -1.38134,-2.10933 -0.504,-1.26934 -0.504,-2.93067 0,-1.66133 0.52267,-2.912 0.52267,-1.26933 1.4,-2.128 0.896,-0.85867 2.05333,-1.288 1.176,-0.42933 2.464,-0.42933 1.32534,0 2.50134,0.42933 1.176,0.42933 2.05333,1.288 0.87733,0.85867 1.38133,2.128 0.504,1.25067 0.504,2.912 z" />
    <path
       inkscape:connector-curvature="0"
       id="path4867"
       style="font-style:normal;font-variant:normal;font-weight:bold;font-stretch:normal;font-size:medium;line-height:1.25;font-family:Ubuntu;-inkscape-font-specification:'Ubuntu Bold';text-align:center;letter-spacing:0px;word-spacing:0px;text-anchor:middle;fill:#5d4640;fill-opacity:1;stroke:none"
       d="m 124.99925,184.28851 q -1.25067,-2.22133 -2.70667,-4.38666 -1.456,-2.16534 -3.09866,-4.088 v 8.47466 h -2.87467 v -12.936 h 2.37067 q 0.616,0.616 1.36266,1.512 0.74667,0.896 1.512,1.92267 0.784,1.008 1.54933,2.10933 0.76534,1.08267 1.43734,2.09067 v -7.63467 h 2.89333 v 12.936 z" />
    <path
       inkscape:connector-curvature="0"
       id="path4869"
       style="font-style:normal;font-variant:normal;font-weight:bold;font-stretch:normal;font-size:medium;line-height:1.25;font-family:Ubuntu;-inkscape-font-specification:'Ubuntu Bold';text-align:center;letter-spacing:0px;word-spacing:0px;text-anchor:middle;fill:#5d4640;fill-opacity:1;stroke:none"
       d="m 132.96729,182.81385 q 0,0.84 -0.54133,1.288 -0.52267,0.42933 -1.19467,0.42933 -0.672,0 -1.21333,-0.42933 -0.52267,-0.448 -0.52267,-1.288 0,-0.84 0.52267,-1.26934 0.54133,-0.448 1.21333,-0.448 0.672,0 1.19467,0.448 0.54133,0.42934 0.54133,1.26934 z" />
    <path
       inkscape:connector-curvature="0"
       id="path4871"
       style="font-style:normal;font-variant:normal;font-weight:bold;font-stretch:normal;font-size:medium;line-height:1.25;font-family:Ubuntu;-inkscape-font-specification:'Ubuntu Bold';text-align:center;letter-spacing:0px;word-spacing:0px;text-anchor:middle;fill:#5d4640;fill-opacity:1;stroke:none"
       d="m 140.19188,184.54985 q -3.15467,0 -4.816,-1.75467 -1.64267,-1.75467 -1.64267,-4.984 0,-1.60533 0.504,-2.856 0.504,-1.26933 1.38133,-2.128 0.87734,-0.87733 2.09067,-1.32533 1.21333,-0.448 2.632,-0.448 0.82133,0 1.49333,0.13066 0.672,0.112 1.176,0.28 0.504,0.14934 0.84,0.31734 0.336,0.168 0.48534,0.26133 l -0.84,2.352 q -0.59734,-0.31733 -1.4,-0.54133 -0.784,-0.224 -1.792,-0.224 -0.672,0 -1.32534,0.224 -0.63466,0.224 -1.13866,0.728 -0.48534,0.48533 -0.784,1.26933 -0.29867,0.784 -0.29867,1.904 0,0.896 0.18667,1.68 0.20533,0.76533 0.63466,1.32533 0.448,0.56 1.15734,0.896 0.70933,0.31734 1.71733,0.31734 0.63467,0 1.13867,-0.0747 0.504,-0.0747 0.896,-0.168 0.392,-0.112 0.69066,-0.24267 0.29867,-0.13066 0.54134,-0.24266 l 0.80266,2.33333 q -0.616,0.37333 -1.736,0.672 -1.12,0.29867 -2.59466,0.29867 z" />
    <path
       inkscape:connector-curvature="0"
       id="path4873"
       style="font-style:normal;font-variant:normal;font-weight:bold;font-stretch:normal;font-size:medium;line-height:1.25;font-family:Ubuntu;-inkscape-font-specification:'Ubuntu Bold';text-align:center;letter-spacing:0px;word-spacing:0px;text-anchor:middle;fill:#5d4640;fill-opacity:1;stroke:none"
       d="m 148.36875,177.81118 q 0,0.952 0.224,1.71733 0.24266,0.76534 0.672,1.32534 0.448,0.54133 1.08266,0.84 0.63467,0.29866 1.456,0.29866 0.80267,0 1.43734,-0.29866 0.65333,-0.29867 1.08266,-0.84 0.448,-0.56 0.672,-1.32534 0.24267,-0.76533 0.24267,-1.71733 0,-0.952 -0.24267,-1.71733 -0.224,-0.784 -0.672,-1.32534 -0.42933,-0.56 -1.08266,-0.85866 -0.63467,-0.29867 -1.43734,-0.29867 -0.82133,0 -1.456,0.31733 -0.63466,0.29867 -1.08266,0.85867 -0.42934,0.54133 -0.672,1.32533 -0.224,0.76534 -0.224,1.69867 z m 9.87466,0 q 0,1.66133 -0.504,2.93067 -0.48533,1.25066 -1.344,2.10933 -0.85866,0.84 -2.05333,1.26933 -1.176,0.42934 -2.53867,0.42934 -1.32533,0 -2.50133,-0.42934 -1.176,-0.42933 -2.05333,-1.26933 -0.87734,-0.85867 -1.38134,-2.10933 -0.504,-1.26934 -0.504,-2.93067 0,-1.66133 0.52267,-2.912 0.52267,-1.26933 1.4,-2.128 0.896,-0.85867 2.05333,-1.288 1.176,-0.42933 2.464,-0.42933 1.32534,0 2.50134,0.42933 1.176,0.42933 2.05333,1.288 0.87733,0.85867 1.38133,2.128 0.504,1.25067 0.504,2.912 z" />
    <path
       inkscape:connector-curvature="0"
       id="path4875"
       style="font-style:normal;font-variant:normal;font-weight:bold;font-stretch:normal;font-size:medium;line-height:1.25;font-family:Ubuntu;-inkscape-font-specification:'Ubuntu Bold';text-align:center;letter-spacing:0px;word-spacing:0px;text-anchor:middle;fill:#5d4640;fill-opacity:1;stroke:none"
       d="m 164.08725,171.35251 q 0.336,0.616 0.76533,1.53067 0.448,0.896 0.91467,1.96 0.48533,1.04533 0.952,2.14667 0.46667,1.10133 0.87733,2.072 0.41067,-0.97067 0.87734,-2.072 0.46666,-1.10134 0.93333,-2.14667 0.48533,-1.064 0.91467,-1.96 0.448,-0.91467 0.784,-1.53067 h 2.65066 q 0.18667,1.288 0.336,2.89334 0.168,1.58666 0.28,3.32266 0.13067,1.71734 0.224,3.45334 0.112,1.736 0.18667,3.26666 h -2.83733 q -0.056,-1.88533 -0.14934,-4.10666 -0.0933,-2.22134 -0.28,-4.48 -0.336,0.784 -0.74666,1.736 -0.41067,0.952 -0.82134,1.904 -0.392,0.952 -0.76533,1.82933 -0.37333,0.85867 -0.63467,1.47467 h -2.03466 q -0.26134,-0.616 -0.63467,-1.47467 -0.37333,-0.87733 -0.784,-1.82933 -0.392,-0.952 -0.80267,-1.904 -0.41066,-0.952 -0.74666,-1.736 -0.18667,2.25866 -0.28,4.48 -0.0933,2.22133 -0.14934,4.10666 h -2.83733 q 0.0747,-1.53066 0.168,-3.26666 0.112,-1.736 0.224,-3.45334 0.13067,-1.736 0.28,-3.32266 0.168,-1.60534 0.35467,-2.89334 z" />
  </g>
</svg>
